<svg xmlns="http://www.w3.org/2000/svg" xmlns:xlink="http://www.w3.org/1999/xlink" width="504" zoomAndPan="magnify" viewBox="0 0 378 377.999986" height="504" preserveAspectRatio="xMidYMid meet" version="1.0"><defs><clipPath id="17b494eafa"><path d="M 0 0 L 377.792969 0 L 377.792969 377.792969 L 0 377.792969 Z M 0 0 " clip-rule="nonzero"/></clipPath><clipPath id="17b645bff4"><path d="M 188.894531 0 C 84.570312 0 0 84.570312 0 188.894531 C 0 293.21875 84.570312 377.792969 188.894531 377.792969 C 293.21875 377.792969 377.792969 293.21875 377.792969 188.894531 C 377.792969 84.570312 293.21875 0 188.894531 0 Z M 188.894531 0 " clip-rule="nonzero"/></clipPath><clipPath id="b55d873d81"><path d="M 0 0 L 377.792969 0 L 377.792969 377.792969 L 0 377.792969 Z M 0 0 " clip-rule="nonzero"/></clipPath><clipPath id="ae3feb4403"><path d="M 188.894531 0 C 84.570312 0 0 84.570312 0 188.894531 C 0 293.21875 84.570312 377.792969 188.894531 377.792969 C 293.21875 377.792969 377.792969 293.21875 377.792969 188.894531 C 377.792969 84.570312 293.21875 0 188.894531 0 Z M 188.894531 0 " clip-rule="nonzero"/></clipPath><clipPath id="28665804e7"><rect x="0" width="378" y="0" height="378"/></clipPath><clipPath id="7d5c848a84"><path d="M 73 20 L 318 20 L 318 355.679688 L 73 355.679688 Z M 73 20 " clip-rule="nonzero"/></clipPath></defs><g clip-path="url(#17b494eafa)"><g clip-path="url(#17b645bff4)"><g transform="matrix(1, 0, 0, 1, 0, 0)"><g clip-path="url(#28665804e7)"><g clip-path="url(#b55d873d81)"><g clip-path="url(#ae3feb4403)"><path fill="#fdfdfd" d="M 0 0 L 377.792969 0 L 377.792969 377.792969 L 0 377.792969 Z M 0 0 " fill-opacity="1" fill-rule="nonzero"/></g></g></g></g></g></g><g clip-path="url(#7d5c848a84)"><path fill="#004ca8" d="M 313.78125 239.550781 L 270.351562 220.816406 C 267.878906 219.757812 265.296875 219.234375 262.609375 219.246094 C 258.835938 219.484375 255.207031 220.335938 251.726562 221.808594 C 248.242188 223.28125 245.105469 225.289062 242.304688 227.828125 L 231.839844 213.699219 C 228.5625 209.257812 225.011719 205.050781 221.179688 201.074219 C 217.347656 197.101562 213.269531 193.394531 208.949219 189.957031 C 204.628906 186.519531 200.101562 183.382812 195.367188 180.542969 C 190.632812 177.703125 185.734375 175.183594 180.667969 172.992188 L 174.804688 170.480469 L 178.574219 161.691406 L 227.445312 182.621094 C 228.082031 182.90625 228.734375 183.160156 229.394531 183.382812 C 230.058594 183.605469 230.730469 183.792969 231.414062 183.949219 C 232.097656 184.101562 232.785156 184.222656 233.476562 184.308594 C 234.171875 184.394531 234.867188 184.445312 235.566406 184.460938 C 236.265625 184.476562 236.964844 184.457031 237.664062 184.402344 C 238.359375 184.351562 239.050781 184.261719 239.742188 184.136719 C 240.429688 184.015625 241.109375 183.855469 241.78125 183.664062 C 242.453125 183.472656 243.117188 183.246094 243.765625 182.988281 C 244.414062 182.730469 245.050781 182.441406 245.671875 182.121094 C 246.292969 181.796875 246.894531 181.445312 247.480469 181.0625 C 248.066406 180.683594 248.632812 180.273438 249.175781 179.832031 C 249.722656 179.394531 250.242188 178.929688 250.738281 178.4375 C 251.238281 177.945312 251.710938 177.433594 252.15625 176.894531 C 252.601562 176.355469 253.019531 175.796875 253.410156 175.214844 C 253.800781 174.636719 254.160156 174.039062 254.492188 173.421875 C 254.820312 172.804688 255.121094 172.171875 255.386719 171.527344 L 282.386719 110.933594 C 282.804688 109.992188 283.152344 109.027344 283.425781 108.035156 C 283.699219 107.042969 283.898438 106.035156 284.027344 105.011719 C 284.152344 103.992188 284.203125 102.964844 284.175781 101.9375 C 284.152344 100.90625 284.050781 99.886719 283.875 98.871094 C 283.699219 97.855469 283.449219 96.859375 283.128906 95.882812 C 282.804688 94.90625 282.410156 93.957031 281.949219 93.039062 C 281.484375 92.117188 280.957031 91.238281 280.363281 90.394531 C 279.773438 89.554688 279.121094 88.761719 278.410156 88.015625 C 276.316406 86.015625 273.90625 84.515625 271.191406 83.515625 L 131.585938 22.503906 C 130.949219 22.214844 130.300781 21.960938 129.640625 21.738281 C 128.976562 21.515625 128.304688 21.324219 127.625 21.167969 C 126.945312 21.011719 126.257812 20.890625 125.566406 20.804688 C 124.875 20.71875 124.179688 20.664062 123.480469 20.648438 C 122.78125 20.628906 122.085938 20.644531 121.390625 20.699219 C 120.691406 20.75 120 20.835938 119.3125 20.957031 C 118.625 21.082031 117.945312 21.234375 117.273438 21.425781 C 116.601562 21.613281 115.941406 21.835938 115.292969 22.09375 C 114.640625 22.347656 114.007812 22.636719 113.386719 22.953125 C 112.765625 23.273438 112.160156 23.621094 111.574219 24 C 110.988281 24.382812 110.421875 24.789062 109.878906 25.226562 C 109.332031 25.660156 108.8125 26.125 108.3125 26.613281 C 107.8125 27.101562 107.339844 27.613281 106.890625 28.148438 C 106.445312 28.683594 106.023438 29.238281 105.632812 29.816406 C 105.242188 30.394531 104.878906 30.992188 104.546875 31.605469 C 104.214844 32.21875 103.914062 32.847656 103.644531 33.492188 L 77.167969 93.980469 C 76.746094 94.925781 76.398438 95.898438 76.125 96.898438 C 75.847656 97.894531 75.648438 98.910156 75.523438 99.9375 C 75.398438 100.964844 75.351562 101.996094 75.378906 103.03125 C 75.40625 104.066406 75.511719 105.09375 75.691406 106.113281 C 75.875 107.132812 76.128906 108.136719 76.457031 109.117188 C 76.785156 110.097656 77.1875 111.050781 77.65625 111.972656 C 78.128906 112.894531 78.664062 113.777344 79.265625 114.621094 C 79.867188 115.464844 80.527344 116.257812 81.246094 117.003906 C 83.222656 119.160156 85.558594 120.800781 88.257812 121.921875 L 137.339844 142.851562 L 121.957031 179.167969 C 119.714844 178.21875 117.378906 177.730469 114.945312 177.699219 C 114.296875 177.691406 113.648438 177.71875 113.003906 177.78125 C 112.355469 177.84375 111.714844 177.941406 111.078125 178.078125 C 110.445312 178.210938 109.820312 178.382812 109.203125 178.585938 C 108.585938 178.789062 107.984375 179.027344 107.394531 179.300781 C 106.804688 179.574219 106.230469 179.878906 105.675781 180.214844 C 105.121094 180.550781 104.585938 180.917969 104.074219 181.316406 C 103.558594 181.710938 103.066406 182.136719 102.601562 182.585938 C 102.132812 183.039062 101.695312 183.515625 101.28125 184.015625 C 100.867188 184.515625 100.484375 185.039062 100.128906 185.582031 C 99.773438 186.128906 99.453125 186.6875 99.160156 187.269531 C 98.867188 187.851562 98.609375 188.445312 98.386719 189.054688 C 98.160156 189.664062 97.96875 190.28125 97.816406 190.914062 C 97.660156 191.542969 97.539062 192.179688 97.457031 192.824219 C 97.371094 193.46875 97.324219 194.117188 97.3125 194.765625 C 97.300781 195.414062 97.324219 196.0625 97.386719 196.707031 C 97.449219 197.355469 97.546875 197.996094 97.679688 198.632812 C 96.011719 198.914062 94.40625 199.402344 92.863281 200.097656 C 91.753906 200.59375 90.703125 201.199219 89.71875 201.914062 C 88.734375 202.628906 87.828125 203.433594 87.011719 204.335938 C 86.191406 205.234375 85.472656 206.210938 84.855469 207.257812 C 84.234375 208.308594 83.730469 209.410156 83.339844 210.5625 C 82.957031 211.855469 82.722656 213.175781 82.636719 214.523438 C 82.550781 215.871094 82.617188 217.210938 82.832031 218.542969 C 83.050781 219.875 83.414062 221.164062 83.925781 222.414062 C 84.433594 223.664062 85.078125 224.839844 85.851562 225.945312 C 84.164062 227.0625 82.710938 228.429688 81.492188 230.046875 C 80.269531 231.664062 79.351562 233.433594 78.738281 235.363281 C 78.308594 236.667969 78.035156 238 77.921875 239.367188 C 77.808594 240.734375 77.859375 242.09375 78.066406 243.449219 C 78.277344 244.804688 78.640625 246.117188 79.160156 247.386719 C 79.679688 248.652344 80.339844 249.84375 81.144531 250.957031 C 79.402344 252.066406 77.902344 253.4375 76.640625 255.074219 C 75.382812 256.710938 74.441406 258.511719 73.816406 260.480469 C 73.578125 261.289062 73.398438 262.113281 73.277344 262.949219 C 73.152344 263.785156 73.089844 264.628906 73.089844 265.472656 C 73.085938 266.320312 73.144531 267.160156 73.261719 267.996094 C 73.378906 268.832031 73.558594 269.65625 73.792969 270.46875 C 74.027344 271.28125 74.320312 272.074219 74.667969 272.84375 C 75.015625 273.613281 75.417969 274.355469 75.871094 275.070312 C 76.324219 275.78125 76.824219 276.457031 77.375 277.101562 C 77.925781 277.742188 78.519531 278.339844 79.15625 278.898438 L 75.804688 286.851562 C 75.515625 287.535156 75.257812 288.230469 75.035156 288.9375 C 74.8125 289.644531 74.625 290.363281 74.472656 291.089844 C 74.320312 291.8125 74.203125 292.546875 74.121094 293.285156 C 74.039062 294.019531 73.996094 294.761719 73.984375 295.503906 C 73.976562 296.242188 74.003906 296.984375 74.066406 297.722656 C 74.128906 298.464844 74.226562 299.199219 74.363281 299.925781 C 74.496094 300.65625 74.667969 301.378906 74.871094 302.089844 C 75.078125 302.804688 75.316406 303.503906 75.589844 304.195312 C 75.863281 304.882812 76.171875 305.558594 76.507812 306.21875 C 76.847656 306.878906 77.21875 307.519531 77.621094 308.144531 C 78.023438 308.769531 78.453125 309.371094 78.914062 309.953125 C 79.375 310.535156 79.863281 311.089844 80.378906 311.625 C 80.894531 312.160156 81.433594 312.667969 81.996094 313.148438 C 82.5625 313.628906 83.148438 314.082031 83.757812 314.507812 C 84.367188 314.929688 84.996094 315.324219 85.640625 315.6875 C 86.289062 316.050781 86.953125 316.378906 87.632812 316.675781 C 90.503906 317.921875 93.503906 318.550781 96.632812 318.5625 C 99.539062 318.585938 102.328125 318.027344 105.003906 316.886719 C 106.414062 316.320312 107.753906 315.617188 109.023438 314.777344 C 110.289062 313.9375 111.457031 312.976562 112.53125 311.894531 C 113.601562 310.816406 114.550781 309.640625 115.378906 308.363281 C 116.210938 307.089844 116.902344 305.746094 117.457031 304.328125 L 120.492188 297.421875 L 137.445312 304.746094 C 143.167969 307.195312 149.074219 309.035156 155.175781 310.269531 C 161.273438 311.503906 167.433594 312.105469 173.65625 312.074219 C 183.472656 312.058594 193.101562 310.695312 202.539062 307.992188 L 206.410156 309.667969 C 206.296875 311.015625 206.28125 312.363281 206.359375 313.710938 C 206.4375 315.0625 206.613281 316.402344 206.878906 317.726562 C 207.148438 319.050781 207.507812 320.351562 207.960938 321.625 C 208.410156 322.902344 208.949219 324.136719 209.578125 325.335938 C 210.203125 326.535156 210.914062 327.683594 211.703125 328.78125 C 212.492188 329.878906 213.355469 330.917969 214.289062 331.894531 C 215.226562 332.867188 216.226562 333.773438 217.289062 334.609375 C 218.355469 335.441406 219.472656 336.199219 220.644531 336.875 L 264.179688 355.609375 C 264.875 355.765625 265.574219 355.765625 266.269531 355.609375 C 266.792969 355.609375 267.308594 355.535156 267.808594 355.382812 C 268.3125 355.234375 268.78125 355.015625 269.21875 354.726562 C 269.65625 354.4375 270.042969 354.09375 270.378906 353.691406 C 270.714844 353.289062 270.984375 352.84375 271.191406 352.363281 C 271.335938 352.039062 271.449219 351.699219 271.527344 351.351562 C 271.605469 351.003906 271.648438 350.652344 271.65625 350.296875 C 271.664062 349.9375 271.636719 349.585938 271.574219 349.234375 C 271.511719 348.882812 271.414062 348.539062 271.28125 348.207031 C 271.148438 347.875 270.984375 347.5625 270.789062 347.261719 C 270.597656 346.964844 270.375 346.6875 270.121094 346.433594 C 269.871094 346.179688 269.597656 345.949219 269.300781 345.75 C 269.007812 345.550781 268.695312 345.382812 268.363281 345.246094 L 241.992188 334.675781 C 245.832031 332.136719 249.453125 329.3125 252.855469 326.203125 C 256.257812 323.097656 259.394531 319.746094 262.273438 316.148438 C 265.152344 312.550781 267.730469 308.753906 270.015625 304.753906 C 272.300781 300.753906 274.261719 296.601562 275.898438 292.292969 C 277.90625 288.144531 279.578125 283.863281 280.917969 279.453125 C 282.257812 275.042969 283.25 270.554688 283.886719 265.988281 C 284.527344 261.425781 284.808594 256.839844 284.734375 252.230469 C 284.65625 247.621094 284.222656 243.042969 283.433594 238.503906 L 309.910156 249.910156 C 310.609375 250.070312 311.304688 250.070312 312.003906 249.910156 C 312.527344 249.917969 313.042969 249.847656 313.546875 249.703125 C 314.050781 249.554688 314.523438 249.335938 314.960938 249.046875 C 315.402344 248.757812 315.789062 248.410156 316.121094 248.003906 C 316.457031 247.597656 316.722656 247.152344 316.921875 246.667969 C 317.0625 246.332031 317.171875 245.984375 317.242188 245.625 C 317.3125 245.269531 317.347656 244.910156 317.34375 244.542969 C 317.34375 244.179688 317.304688 243.820312 317.226562 243.464844 C 317.148438 243.105469 317.039062 242.761719 316.890625 242.429688 C 316.742188 242.097656 316.566406 241.78125 316.351562 241.484375 C 316.140625 241.1875 315.902344 240.914062 315.632812 240.667969 C 315.367188 240.421875 315.078125 240.203125 314.765625 240.015625 C 314.453125 239.824219 314.125 239.671875 313.78125 239.550781 Z M 263.027344 230.027344 C 264.183594 230.011719 265.300781 230.222656 266.375 230.65625 C 270.246094 232.328125 272.863281 237.246094 273.910156 244.46875 L 250.992188 234.734375 C 252.714844 233.359375 254.601562 232.269531 256.652344 231.46875 C 258.703125 230.664062 260.828125 230.183594 263.027344 230.027344 Z M 217.714844 314.375 L 238.644531 323.585938 C 237.117188 324.714844 235.464844 325.605469 233.6875 326.265625 C 231.90625 326.925781 230.070312 327.320312 228.179688 327.457031 C 226.984375 327.472656 225.835938 327.261719 224.722656 326.828125 C 223.703125 326.140625 222.773438 325.347656 221.933594 324.441406 C 221.097656 323.539062 220.371094 322.550781 219.765625 321.480469 C 219.15625 320.410156 218.679688 319.28125 218.332031 318.097656 C 217.984375 316.917969 217.777344 315.710938 217.714844 314.480469 Z M 271.921875 106.746094 L 245.863281 167.234375 C 245.589844 167.863281 245.257812 168.457031 244.871094 169.019531 C 244.480469 169.582031 244.039062 170.101562 243.546875 170.578125 C 243.054688 171.054688 242.523438 171.476562 241.945312 171.847656 C 241.371094 172.21875 240.765625 172.53125 240.132812 172.78125 C 239.496094 173.035156 238.839844 173.222656 238.167969 173.347656 C 237.496094 173.472656 236.816406 173.527344 236.132812 173.519531 C 235.449219 173.511719 234.773438 173.4375 234.101562 173.292969 C 233.433594 173.152344 232.785156 172.945312 232.15625 172.679688 L 178.46875 149.445312 L 160.886719 142.121094 L 92.550781 112.503906 C 91.253906 111.90625 90.105469 111.105469 89.097656 110.097656 C 88.167969 109.109375 87.4375 107.992188 86.898438 106.746094 C 86.363281 105.457031 86.09375 104.117188 86.09375 102.71875 C 86.09375 101.320312 86.363281 99.980469 86.898438 98.691406 L 113.480469 37.78125 C 113.753906 37.148438 114.085938 36.546875 114.476562 35.980469 C 114.871094 35.414062 115.3125 34.890625 115.808594 34.410156 C 116.304688 33.929688 116.84375 33.5 117.421875 33.128906 C 118.003906 32.753906 118.613281 32.441406 119.253906 32.1875 C 119.898438 31.933594 120.558594 31.746094 121.238281 31.625 C 121.914062 31.503906 122.601562 31.449219 123.289062 31.460938 C 123.980469 31.476562 124.660156 31.554688 125.335938 31.703125 C 126.007812 31.851562 126.664062 32.0625 127.292969 32.339844 L 266.898438 92.933594 C 268.214844 93.5 269.367188 94.300781 270.351562 95.339844 C 271.027344 96.109375 271.574219 96.960938 272 97.890625 C 272.425781 98.824219 272.707031 99.796875 272.847656 100.808594 C 272.988281 101.824219 272.976562 102.835938 272.820312 103.847656 C 272.664062 104.855469 272.363281 105.824219 271.921875 106.746094 Z M 240.527344 241.851562 L 274.121094 256.398438 C 273.105469 267.308594 270.386719 277.773438 265.957031 287.792969 C 261.621094 298.246094 255.65625 307.664062 248.0625 316.050781 L 213.734375 301.292969 L 205.050781 297.527344 C 204.316406 297.375 203.585938 297.375 202.851562 297.527344 L 201.28125 297.527344 C 192.316406 300.292969 183.140625 301.6875 173.757812 301.710938 C 168.253906 301.75 162.804688 301.222656 157.410156 300.128906 C 152.015625 299.039062 146.792969 297.402344 141.734375 295.222656 L 119.757812 285.804688 L 88.574219 271.886719 C 88.160156 271.722656 87.761719 271.523438 87.382812 271.289062 C 87.003906 271.054688 86.648438 270.789062 86.316406 270.492188 C 85.984375 270.191406 85.683594 269.867188 85.410156 269.511719 C 85.136719 269.160156 84.898438 268.785156 84.691406 268.390625 C 84.488281 267.992188 84.320312 267.582031 84.1875 267.15625 C 84.058594 266.730469 83.964844 266.292969 83.910156 265.851562 C 83.859375 265.410156 83.847656 264.964844 83.875 264.519531 C 83.902344 264.074219 83.96875 263.632812 84.074219 263.199219 C 84.304688 262.496094 84.640625 261.847656 85.078125 261.25 C 85.519531 260.652344 86.039062 260.136719 86.640625 259.703125 C 87.242188 259.273438 87.894531 258.945312 88.601562 258.71875 C 89.308594 258.492188 90.03125 258.382812 90.769531 258.386719 C 91.714844 258.367188 92.621094 258.539062 93.492188 258.910156 L 94.015625 258.910156 L 117.5625 269.375 C 118.257812 269.515625 118.957031 269.515625 119.65625 269.375 C 120.1875 269.378906 120.707031 269.308594 121.21875 269.160156 C 121.726562 269.011719 122.207031 268.792969 122.652344 268.503906 C 123.097656 268.21875 123.492188 267.871094 123.839844 267.464844 C 124.183594 267.0625 124.464844 266.617188 124.679688 266.132812 C 124.816406 265.808594 124.921875 265.476562 124.992188 265.132812 C 125.066406 264.789062 125.105469 264.441406 125.105469 264.089844 C 125.109375 263.738281 125.082031 263.390625 125.015625 263.046875 C 124.949219 262.699219 124.851562 262.363281 124.71875 262.039062 C 124.589844 261.714844 124.425781 261.402344 124.234375 261.109375 C 124.042969 260.816406 123.824219 260.542969 123.578125 260.292969 C 123.332031 260.042969 123.0625 259.820312 122.773438 259.621094 C 122.484375 259.425781 122.175781 259.257812 121.851562 259.121094 L 98.304688 248.65625 L 94.015625 247.1875 C 93.597656 247.03125 93.195312 246.835938 92.8125 246.605469 C 92.429688 246.371094 92.070312 246.109375 91.738281 245.808594 C 91.402344 245.511719 91.097656 245.1875 90.824219 244.832031 C 90.550781 244.480469 90.308594 244.105469 90.101562 243.707031 C 89.898438 243.308594 89.730469 242.898438 89.597656 242.46875 C 89.46875 242.039062 89.378906 241.605469 89.328125 241.160156 C 89.277344 240.714844 89.269531 240.269531 89.300781 239.824219 C 89.332031 239.375 89.402344 238.9375 89.515625 238.503906 C 89.828125 237.578125 90.3125 236.75 90.96875 236.023438 C 91.621094 235.292969 92.394531 234.726562 93.28125 234.316406 C 94.179688 233.90625 95.121094 233.695312 96.109375 233.6875 C 97.050781 233.488281 97.992188 233.488281 98.933594 233.6875 L 127.292969 245.933594 C 127.621094 246.074219 127.957031 246.179688 128.304688 246.25 C 128.652344 246.324219 129.003906 246.363281 129.359375 246.367188 C 129.714844 246.371094 130.066406 246.34375 130.414062 246.277344 C 130.765625 246.210938 131.105469 246.113281 131.433594 245.984375 C 131.761719 245.851562 132.078125 245.691406 132.375 245.5 C 132.675781 245.304688 132.949219 245.085938 133.207031 244.839844 C 133.460938 244.59375 133.691406 244.324219 133.894531 244.03125 C 134.097656 243.742188 134.269531 243.433594 134.410156 243.109375 C 134.546875 242.785156 134.652344 242.453125 134.726562 242.109375 C 134.796875 241.765625 134.835938 241.417969 134.839844 241.066406 C 134.84375 240.714844 134.8125 240.367188 134.746094 240.023438 C 134.683594 239.675781 134.585938 239.339844 134.453125 239.015625 C 134.320312 238.691406 134.160156 238.378906 133.96875 238.085938 C 133.777344 237.792969 133.554688 237.519531 133.308594 237.269531 C 133.0625 237.019531 132.796875 236.796875 132.503906 236.597656 C 132.214844 236.402344 131.910156 236.234375 131.585938 236.097656 L 102.597656 224.375 L 98.097656 222.386719 C 97.699219 222.207031 97.324219 221.992188 96.964844 221.742188 C 96.605469 221.496094 96.273438 221.21875 95.960938 220.910156 C 95.652344 220.605469 95.371094 220.273438 95.121094 219.917969 C 94.871094 219.5625 94.652344 219.1875 94.464844 218.792969 C 94.28125 218.398438 94.128906 217.988281 94.015625 217.570312 C 93.902344 217.148438 93.828125 216.71875 93.789062 216.285156 C 93.75 215.851562 93.75 215.417969 93.789062 214.984375 C 93.828125 214.550781 93.902344 214.121094 94.015625 213.699219 C 94.242188 212.738281 94.644531 211.859375 95.222656 211.058594 C 95.804688 210.261719 96.519531 209.605469 97.363281 209.097656 C 98.304688 208.898438 99.246094 208.898438 100.191406 209.097656 C 101.144531 209.089844 102.054688 209.300781 102.910156 209.722656 L 108.039062 211.921875 L 136.398438 224.167969 C 137.132812 224.316406 137.863281 224.316406 138.597656 224.167969 C 139.121094 224.175781 139.636719 224.105469 140.140625 223.957031 C 140.644531 223.808594 141.117188 223.589844 141.554688 223.300781 C 141.996094 223.011719 142.382812 222.664062 142.714844 222.257812 C 143.050781 221.855469 143.316406 221.40625 143.515625 220.921875 C 143.652344 220.597656 143.757812 220.265625 143.832031 219.921875 C 143.902344 219.578125 143.941406 219.230469 143.945312 218.878906 C 143.949219 218.527344 143.917969 218.179688 143.851562 217.835938 C 143.789062 217.492188 143.6875 217.15625 143.558594 216.828125 C 143.425781 216.503906 143.265625 216.195312 143.074219 215.902344 C 142.878906 215.605469 142.660156 215.335938 142.414062 215.085938 C 142.167969 214.832031 141.902344 214.609375 141.609375 214.414062 C 141.320312 214.214844 141.011719 214.046875 140.691406 213.910156 L 112.328125 201.769531 C 111.882812 201.570312 111.464844 201.328125 111.070312 201.042969 C 110.675781 200.753906 110.316406 200.429688 109.988281 200.070312 C 109.664062 199.707031 109.378906 199.316406 109.132812 198.894531 C 108.886719 198.472656 108.691406 198.03125 108.535156 197.566406 C 108.382812 197.105469 108.28125 196.632812 108.226562 196.148438 C 108.171875 195.664062 108.171875 195.179688 108.21875 194.691406 C 108.265625 194.207031 108.359375 193.734375 108.507812 193.269531 C 108.652344 192.804688 108.847656 192.359375 109.085938 191.933594 C 109.363281 191.386719 109.707031 190.886719 110.117188 190.433594 C 110.527344 189.980469 110.992188 189.585938 111.503906 189.257812 C 112.019531 188.925781 112.570312 188.667969 113.152344 188.484375 C 113.738281 188.296875 114.335938 188.191406 114.945312 188.167969 C 116.082031 188.160156 117.164062 188.402344 118.191406 188.898438 L 122.375 190.679688 L 143.304688 199.78125 L 153.769531 204.386719 L 167.269531 210.351562 C 167.96875 210.441406 168.667969 210.441406 169.363281 210.351562 C 169.894531 210.34375 170.410156 210.261719 170.914062 210.109375 C 171.421875 209.957031 171.894531 209.734375 172.339844 209.449219 C 172.785156 209.164062 173.179688 208.820312 173.527344 208.421875 C 173.875 208.023438 174.164062 207.585938 174.386719 207.109375 C 174.527344 206.78125 174.632812 206.445312 174.707031 206.097656 C 174.777344 205.75 174.816406 205.398438 174.820312 205.042969 C 174.824219 204.6875 174.796875 204.335938 174.730469 203.988281 C 174.667969 203.636719 174.570312 203.300781 174.4375 202.96875 C 174.308594 202.640625 174.144531 202.324219 173.953125 202.027344 C 173.761719 201.726562 173.539062 201.453125 173.292969 201.195312 C 173.046875 200.941406 172.777344 200.710938 172.488281 200.507812 C 172.195312 200.304688 171.886719 200.132812 171.5625 199.992188 L 163.714844 196.644531 L 170.933594 179.898438 L 176.792969 182.410156 C 181.429688 184.410156 185.914062 186.710938 190.246094 189.304688 C 194.578125 191.902344 198.71875 194.773438 202.667969 197.917969 C 206.617188 201.0625 210.34375 204.457031 213.84375 208.097656 C 217.34375 211.738281 220.585938 215.59375 223.574219 219.667969 L 238.328125 240.492188 C 238.9375 241.144531 239.671875 241.597656 240.527344 241.851562 Z M 157.957031 152.585938 L 169.050781 157.398438 L 163.191406 171.109375 L 153.875 192.769531 L 131.898438 183.351562 L 147.179688 147.980469 Z M 85.644531 290.621094 L 88.679688 283.710938 L 100.714844 288.839844 L 110.550781 293.132812 L 107.621094 300.039062 C 107.007812 301.507812 106.125 302.800781 104.980469 303.910156 C 103.835938 305.019531 102.515625 305.855469 101.027344 306.421875 C 99.613281 306.964844 98.148438 307.246094 96.632812 307.257812 C 95 307.257812 93.429688 306.945312 91.921875 306.316406 C 90.472656 305.671875 89.195312 304.78125 88.089844 303.640625 C 86.984375 302.5 86.136719 301.195312 85.539062 299.722656 C 84.953125 298.257812 84.671875 296.738281 84.6875 295.160156 C 84.707031 293.585938 85.023438 292.070312 85.644531 290.621094 Z M 85.644531 290.621094 " fill-opacity="1" fill-rule="nonzero"/></g><path fill="#004ca8" d="M 157.644531 57.039062 C 156.136719 55.417969 154.359375 54.195312 152.304688 53.375 L 133.257812 45.109375 C 132.9375 44.960938 132.601562 44.847656 132.257812 44.765625 C 131.914062 44.683594 131.5625 44.636719 131.207031 44.625 C 130.855469 44.613281 130.5 44.636719 130.152344 44.695312 C 129.800781 44.757812 129.460938 44.847656 129.128906 44.976562 C 128.800781 45.101562 128.484375 45.261719 128.183594 45.449219 C 127.882812 45.640625 127.605469 45.855469 127.347656 46.101562 C 127.09375 46.347656 126.863281 46.613281 126.660156 46.90625 C 126.457031 47.195312 126.285156 47.503906 126.144531 47.828125 L 103.121094 101.097656 C 102.832031 101.746094 102.6875 102.425781 102.6875 103.136719 C 102.6875 103.847656 102.832031 104.527344 103.121094 105.179688 C 103.347656 105.8125 103.695312 106.371094 104.167969 106.851562 C 104.667969 107.402344 105.257812 107.820312 105.945312 108.109375 L 125.410156 116.480469 C 127.371094 117.292969 129.410156 117.695312 131.53125 117.695312 C 133.652344 117.695312 135.695312 117.292969 137.65625 116.480469 C 139.601562 115.71875 141.328125 114.613281 142.835938 113.160156 C 144.339844 111.710938 145.507812 110.027344 146.339844 108.109375 L 149.375 100.992188 C 150.101562 99.179688 150.46875 97.292969 150.46875 95.339844 C 150.46875 93.386719 150.101562 91.503906 149.375 89.691406 C 151.167969 88.878906 152.753906 87.769531 154.125 86.359375 C 155.5 84.953125 156.566406 83.339844 157.328125 81.527344 L 160.46875 74.410156 C 161.292969 72.539062 161.738281 70.582031 161.8125 68.539062 C 161.882812 66.496094 161.574219 64.511719 160.886719 62.585938 C 160.132812 60.546875 159.050781 58.695312 157.644531 57.039062 Z M 122.375 83.515625 L 136.503906 89.585938 C 137.183594 89.882812 137.773438 90.300781 138.28125 90.839844 C 138.628906 91.214844 138.910156 91.628906 139.136719 92.085938 C 139.359375 92.542969 139.511719 93.023438 139.597656 93.527344 C 139.679688 94.027344 139.691406 94.53125 139.625 95.035156 C 139.5625 95.539062 139.429688 96.027344 139.226562 96.492188 L 135.875 103.816406 C 135.621094 104.464844 135.246094 105.03125 134.757812 105.523438 C 134.265625 106.015625 133.695312 106.386719 133.050781 106.644531 C 132.414062 106.90625 131.75 107.035156 131.0625 107.035156 C 130.375 107.035156 129.710938 106.90625 129.074219 106.644531 L 114.945312 100.363281 Z M 147.703125 77.234375 C 147.558594 77.546875 147.390625 77.84375 147.191406 78.125 C 146.992188 78.402344 146.765625 78.660156 146.519531 78.898438 C 146.269531 79.132812 146 79.34375 145.710938 79.527344 C 145.421875 79.714844 145.117188 79.867188 144.796875 79.996094 C 144.480469 80.121094 144.152344 80.214844 143.8125 80.277344 C 143.476562 80.339844 143.136719 80.367188 142.792969 80.367188 C 142.449219 80.363281 142.109375 80.328125 141.773438 80.257812 C 141.4375 80.1875 141.109375 80.089844 140.792969 79.957031 L 126.667969 73.78125 L 133.886719 57.144531 L 148.015625 63.214844 C 148.695312 63.511719 149.285156 63.929688 149.792969 64.46875 C 150.265625 64.949219 150.613281 65.507812 150.839844 66.144531 C 151.128906 66.773438 151.269531 67.4375 151.269531 68.132812 C 151.269531 68.824219 151.128906 69.488281 150.839844 70.121094 Z M 147.703125 77.234375 " fill-opacity="1" fill-rule="nonzero"/><path fill="#004ca8" d="M 243.769531 93.039062 L 224.621094 84.769531 C 224.300781 84.625 223.972656 84.511719 223.628906 84.429688 C 223.289062 84.351562 222.941406 84.304688 222.589844 84.292969 C 222.242188 84.28125 221.890625 84.308594 221.546875 84.367188 C 221.199219 84.425781 220.863281 84.519531 220.539062 84.644531 C 220.210938 84.773438 219.898438 84.929688 219.605469 85.121094 C 219.308594 85.308594 219.035156 85.527344 218.785156 85.769531 C 218.53125 86.015625 218.308594 86.28125 218.109375 86.574219 C 217.910156 86.863281 217.746094 87.167969 217.609375 87.492188 L 194.480469 140.757812 C 194.269531 141.238281 194.136719 141.734375 194.074219 142.25 C 194.015625 142.769531 194.03125 143.285156 194.125 143.796875 C 194.21875 144.308594 194.382812 144.796875 194.621094 145.261719 C 194.863281 145.722656 195.164062 146.140625 195.527344 146.515625 C 196.035156 147.054688 196.628906 147.472656 197.304688 147.769531 L 216.457031 156.144531 C 217.417969 156.550781 218.414062 156.859375 219.4375 157.074219 C 220.460938 157.285156 221.492188 157.398438 222.539062 157.410156 C 223.585938 157.417969 224.621094 157.328125 225.648438 157.136719 C 226.675781 156.941406 227.675781 156.652344 228.644531 156.265625 C 229.617188 155.875 230.539062 155.398438 231.417969 154.828125 C 232.292969 154.257812 233.105469 153.609375 233.855469 152.882812 C 234.605469 152.152344 235.277344 151.359375 235.871094 150.5 C 236.464844 149.640625 236.972656 148.730469 237.386719 147.769531 L 252.039062 114.074219 C 252.34375 113.355469 252.59375 112.621094 252.792969 111.871094 C 252.992188 111.117188 253.136719 110.355469 253.222656 109.582031 C 253.3125 108.808594 253.347656 108.035156 253.324219 107.253906 C 253.300781 106.476562 253.222656 105.707031 253.089844 104.9375 C 252.953125 104.171875 252.765625 103.417969 252.523438 102.679688 C 252.28125 101.941406 251.988281 101.222656 251.640625 100.523438 C 251.296875 99.828125 250.902344 99.160156 250.460938 98.519531 C 250.019531 97.878906 249.53125 97.273438 249.003906 96.703125 C 247.480469 95.164062 245.738281 93.941406 243.769531 93.039062 Z M 227.550781 143.480469 C 227.417969 143.796875 227.257812 144.09375 227.066406 144.375 C 226.875 144.660156 226.660156 144.921875 226.417969 145.160156 C 226.171875 145.398438 225.910156 145.613281 225.625 145.800781 C 225.339844 145.988281 225.039062 146.144531 224.71875 146.269531 C 224.402344 146.398438 224.078125 146.492188 223.742188 146.550781 C 223.40625 146.613281 223.070312 146.640625 222.726562 146.636719 C 222.386719 146.628906 222.050781 146.589844 221.714844 146.515625 C 221.382812 146.445312 221.058594 146.339844 220.746094 146.199219 L 206.515625 140.027344 L 225.351562 96.804688 L 239.480469 102.875 C 240.160156 103.171875 240.75 103.589844 241.257812 104.132812 C 241.605469 104.503906 241.886719 104.921875 242.113281 105.378906 C 242.335938 105.835938 242.488281 106.316406 242.574219 106.816406 C 242.65625 107.320312 242.667969 107.820312 242.601562 108.328125 C 242.539062 108.832031 242.40625 109.316406 242.203125 109.78125 Z M 227.550781 143.480469 " fill-opacity="1" fill-rule="nonzero"/><path fill="#004ca8" d="M 195.109375 72.421875 C 194.621094 71.855469 194.027344 71.4375 193.328125 71.167969 C 193.007812 71.027344 192.671875 70.921875 192.328125 70.851562 C 191.984375 70.777344 191.636719 70.742188 191.289062 70.738281 C 190.9375 70.734375 190.589844 70.765625 190.242188 70.828125 C 189.898438 70.894531 189.5625 70.992188 189.238281 71.125 C 188.910156 71.253906 188.601562 71.417969 188.308594 71.609375 C 188.015625 71.800781 187.742188 72.019531 187.492188 72.265625 C 187.242188 72.511719 187.015625 72.78125 186.820312 73.070312 C 186.621094 73.363281 186.453125 73.667969 186.316406 73.992188 L 163.191406 127.15625 C 163.046875 127.5 162.941406 127.851562 162.871094 128.21875 C 162.800781 128.582031 162.765625 128.949219 162.765625 129.320312 C 162.765625 129.691406 162.804688 130.058594 162.878906 130.425781 C 162.949219 130.789062 163.058594 131.140625 163.203125 131.484375 C 163.347656 131.828125 163.519531 132.152344 163.730469 132.460938 C 163.9375 132.769531 164.171875 133.054688 164.433594 133.316406 C 164.699219 133.578125 164.984375 133.8125 165.296875 134.015625 C 165.605469 134.222656 165.929688 134.394531 166.273438 134.535156 C 166.617188 134.675781 166.972656 134.785156 167.335938 134.855469 C 167.703125 134.925781 168.070312 134.960938 168.441406 134.960938 C 168.8125 134.957031 169.179688 134.921875 169.546875 134.847656 C 169.910156 134.773438 170.261719 134.664062 170.605469 134.519531 C 170.949219 134.375 171.273438 134.199219 171.582031 133.992188 C 171.890625 133.785156 172.175781 133.550781 172.4375 133.285156 C 172.699219 133.023438 172.929688 132.734375 173.136719 132.425781 C 173.339844 132.117188 173.515625 131.789062 173.65625 131.445312 L 196.679688 78.28125 C 196.867188 77.773438 196.976562 77.246094 197 76.703125 C 197.027344 76.160156 196.96875 75.625 196.828125 75.101562 C 196.6875 74.578125 196.472656 74.085938 196.175781 73.628906 C 195.882812 73.171875 195.527344 72.769531 195.109375 72.421875 Z M 195.109375 72.421875 " fill-opacity="1" fill-rule="nonzero"/></svg>